# xmcd CD database file
#
# Track frame offsets:
#	150
#	34775
#	75310
#	108786
#	146699
#
# Disc length: 2392 seconds
#
# Revision: 0
# Processed by: cddbd v1.5.2PL0 Copyright (c) Steve Scherf et al.
# Submitted via: CDex 1.70beta2
#
DISCID=32095605
DTITLE=Bobby Hutcherson - Cirrus
DYEAR=1974
DGENRE=Jazz
TTITLE0=Rosewood
TTITLE1=Even Later
TTITLE2=Wrong or Right
TTITLE3=Zuri Dance
TTITLE4=Cirrus
EXTD=YEAR: 1974
EXTT0=
EXTT1=
EXTT2=
EXTT3=
EXTT4=
PLAYORDER=
